<?xml version="1.0" encoding="UTF-8" standalone="no"?><!-- Generator: Gravit.io --><svg xmlns="http://www.w3.org/2000/svg" xmlns:xlink="http://www.w3.org/1999/xlink" style="isolation:isolate" viewBox="0 0 1080 1080" width="1080pt" height="1080pt"><defs><clipPath id="_clipPath_yB1HOPW37Dx38ineWpI7fnw4X00P4Uay"><rect width="1080" height="1080"/></clipPath></defs><g clip-path="url(#_clipPath_yB1HOPW37Dx38ineWpI7fnw4X00P4Uay)"><path d=" M 221.802 858.198 C 46.184 682.58 46.184 397.42 221.802 221.802 C 397.42 46.184 682.58 46.184 858.198 221.802 C 1033.816 397.42 1033.816 682.58 858.198 858.198 C 682.58 1033.816 397.42 1033.816 221.802 858.198 Z " fill="rgb(0,0,0)" fill-opacity="0.2"/><path d=" M 247.305 834.713 C 245.769 835.134 244.124 834.699 242.999 833.573 C 241.874 832.449 241.438 830.803 241.859 829.267 C 247.444 808.896 262.835 752.731 268.372 732.534 C 268.79 731.012 269.987 729.828 271.511 729.421 C 273.039 729.018 274.664 729.456 275.781 730.574 C 290.506 745.298 331.278 786.071 346.003 800.796 C 347.119 801.912 347.557 803.54 347.156 805.066 C 346.752 806.594 345.565 807.787 344.043 808.205 C 323.844 813.74 267.679 829.135 247.307 834.714 L 247.305 834.713 Z " fill-rule="evenodd" fill="rgb(255,255,255)"/><mask id="_mask_i1faD5soHwTiosfbOUKsXFei8puyAFHm"><path d=" M 707.669 294.058 L 788.029 374.417 L 829.106 333.34 C 844.461 317.985 840.135 288.722 819.448 268.035 L 816.75 265.337 C 794.575 243.162 763.205 238.522 746.744 254.984 L 707.669 294.058 Z " fill-rule="evenodd" fill="white" stroke="none"/></mask><path d=" M 707.669 294.058 L 788.029 374.417 L 829.106 333.34 C 844.461 317.985 840.135 288.722 819.448 268.035 L 816.75 265.337 C 794.575 243.162 763.205 238.522 746.744 254.984 L 707.669 294.058 Z " fill-rule="evenodd" fill="rgb(255,255,255)"/><path d=" M 707.669 294.058 L 788.029 374.417 L 829.106 333.34 C 844.461 317.985 840.135 288.722 819.448 268.035 L 816.75 265.337 C 794.575 243.162 763.205 238.522 746.744 254.984 L 707.669 294.058 Z " fill-rule="evenodd" fill="rgb(255,255,255)" mask="url(#_mask_i1faD5soHwTiosfbOUKsXFei8puyAFHm)" vector-effect="non-scaling-stroke" stroke-width="60" stroke="rgb(255,255,255)" stroke-linejoin="miter" stroke-linecap="square" stroke-miterlimit="3"/><path d="M 292.219 707.798 L 685.908 314.109 C 689.828 310.19 696.191 310.19 700.111 314.109 L 766.401 380.399 C 770.32 384.319 770.32 390.682 766.401 394.602 L 372.712 788.291 C 368.792 792.21 362.429 792.21 358.509 788.291 L 292.219 722.001 C 288.3 718.081 288.3 711.718 292.219 707.798 Z" style="stroke:none;fill:#FFFFFF;stroke-miterlimit:10;"/></g></svg>