<?xml version="1.0" encoding="UTF-8" standalone="no"?><!-- Generator: Gravit.io --><svg xmlns="http://www.w3.org/2000/svg" xmlns:xlink="http://www.w3.org/1999/xlink" style="isolation:isolate" viewBox="0 0 1080 1080" width="1080pt" height="1080pt"><defs><clipPath id="_clipPath_LbMER97Zk6UXuaaNMf9Ej5vmYh6jmMm4"><rect width="1080" height="1080"/></clipPath></defs><g clip-path="url(#_clipPath_LbMER97Zk6UXuaaNMf9Ej5vmYh6jmMm4)"><path d=" M 315.774 640.874 L 315.774 801.166 C 315.774 828.118 337.656 850 364.608 850 L 715.392 850 C 742.344 850 764.226 828.118 764.226 801.166 L 764.226 640.874 L 315.774 640.874 Z " fill="rgb(0,0,0)"/><path d="M 333.488 381 L 746.512 381 C 756.291 381 764.23 388.939 764.23 398.717 L 764.23 670.283 C 764.23 680.061 756.291 688 746.512 688 L 333.488 688 C 323.709 688 315.77 680.061 315.77 670.283 L 315.77 398.717 C 315.77 388.939 323.709 381 333.488 381 Z" style="stroke:none;fill:#444444;stroke-miterlimit:10;"/><path d="M 333.488 406 L 746.512 406 C 756.291 406 764.23 413.939 764.23 423.717 L 764.23 695.283 C 764.23 705.061 756.291 713 746.512 713 L 333.488 713 C 323.709 713 315.77 705.061 315.77 695.283 L 315.77 423.717 C 315.77 413.939 323.709 406 333.488 406 Z" style="stroke:none;fill:#000000;stroke-miterlimit:10;"/><path d="M 330.812 406 L 623.958 406 C 632.26 406 639 412.74 639 421.042 L 639 697.958 C 639 706.26 632.26 713 623.958 713 L 330.812 713 C 322.51 713 315.77 706.26 315.77 697.958 L 315.77 421.042 C 315.77 412.74 322.51 406 330.812 406 Z" style="stroke:none;fill:#686868;stroke-miterlimit:10;"/><path d=" M 764.226 406 L 764.226 245.708 C 764.226 218.756 742.344 196.874 715.392 196.874 L 364.608 196.874 C 337.656 196.874 315.774 218.756 315.774 245.708 L 315.774 406 L 764.226 406 Z " fill="rgb(68,68,68)"/></g></svg>