<?xml version="1.0" encoding="UTF-8" standalone="no"?><!-- Generator: Gravit.io --><svg xmlns="http://www.w3.org/2000/svg" xmlns:xlink="http://www.w3.org/1999/xlink" style="isolation:isolate" viewBox="0 0 1080 1080" width="1080pt" height="1080pt"><defs><clipPath id="_clipPath_2NeElnP3p9AkB4rNzI38zqeGqj25cRAn"><rect width="1080" height="1080"/></clipPath></defs><g clip-path="url(#_clipPath_2NeElnP3p9AkB4rNzI38zqeGqj25cRAn)"><path d=" M 221.802 858.198 C 46.184 682.58 46.184 397.42 221.802 221.802 C 397.42 46.184 682.58 46.184 858.198 221.802 C 1033.816 397.42 1033.816 682.58 858.198 858.198 C 682.58 1033.816 397.42 1033.816 221.802 858.198 Z " fill="rgb(0,0,0)" fill-opacity="0.2"/><rect x="644.987" y="644.987" width="237" height="84.084" transform="matrix(0,1,-1,0,1450.517,-76.458)" fill="rgb(255,255,255)"/><rect x="568.529" y="721.445" width="237" height="84.084" transform="matrix(1,0,0,1,0,0)" fill="rgb(255,255,255)"/><rect x="191.542" y="350.929" width="237" height="84.084" transform="matrix(0,-1,1,0,-82.929,703.013)" fill="rgb(255,255,255)"/><rect x="268" y="274.471" width="237" height="84.084" transform="matrix(-1,0,0,-1,773,633.025)" fill="rgb(255,255,255)"/></g></svg>