<?xml version="1.0" encoding="UTF-8" standalone="no"?><!-- Generator: Gravit.io --><svg xmlns="http://www.w3.org/2000/svg" xmlns:xlink="http://www.w3.org/1999/xlink" style="isolation:isolate" viewBox="0 0 3080 3080" width="3080pt" height="3080pt"><defs><clipPath id="_clipPath_2KiBTSKmX7rurGpG2TnaTdJcVlcR7yzc"><rect width="3080" height="3080"/></clipPath></defs><g clip-path="url(#_clipPath_2KiBTSKmX7rurGpG2TnaTdJcVlcR7yzc)"><path d=" M 2152.197 355 L 2152.197 126.03 C 2152.197 69.13 2198.392 22.935 2255.292 22.935 L 2255.292 22.935 L 2266.296 22.935 C 2317.823 22.935 2360.571 60.818 2368.185 110.227 L 2368.185 110.227 L 2374.893 110.227 C 2431.792 110.227 2477.988 156.423 2477.988 213.323 L 2477.988 355 L 2477.988 656.892 C 2477.988 733.116 2530.192 795 2594.494 795 L 2594.494 795 L 2594.494 795 L 2594.494 795 L 2594.494 795 C 2658.795 795 2711 733.116 2711 656.892 L 2711 355 L 2711 191.345 C 2711 89.175 2793.672 6.227 2895.5 6.227 L 2895.5 6.227 L 2895.5 6.227 L 2895.5 6.227 L 2895.5 6.227 L 2895.5 6.227 L 2895.5 6.227 L 2895.5 6.227 C 2997.328 6.227 3080 89.175 3080 191.345 L 3080 355 L 3080 970.609 L 3080 2981 L 0 2981 L 0 765.089 L 0 765.089 L 0 355 L 0 303.781 C 0 178.617 90.961 77 203 77 L 203 77 L 203 77 L 203 77 L 203 77 L 203 77 L 203 77 L 203 77 C 315.039 77 406 178.617 406 303.781 L 406 355 L 406 703.265 L 406 703.265 C 406 799.392 459.653 877.435 525.737 877.435 L 525.737 877.435 C 591.822 877.435 645.475 799.392 645.475 703.265 L 645.475 355 L 645.623 355 C 648.167 271.123 717.059 203.809 801.549 203.809 L 801.549 203.809 L 801.549 203.809 L 801.549 203.809 L 801.549 203.809 L 821.613 203.809 C 907.711 203.809 977.612 273.71 977.612 359.809 L 977.612 497.39 C 990.297 562.351 1045.597 611.309 1111.81 611.309 L 1111.81 611.309 C 1187.386 611.309 1248.743 547.528 1248.743 468.968 L 1248.743 355 L 1248.743 158.812 C 1248.743 81.406 1311.588 18.561 1388.994 18.561 L 1388.994 18.561 L 1388.994 18.561 L 1388.994 18.561 L 1388.994 18.561 L 1388.994 18.561 L 1388.994 18.561 C 1466.4 18.561 1529.244 81.406 1529.244 158.812 L 1529.244 355 L 1529.244 699.953 L 1529.244 699.953 C 1529.244 769.52 1566.743 826 1612.931 826 L 1612.931 826 C 1659.119 826 1696.618 769.52 1696.618 699.953 L 1696.618 356.003 C 1696.618 356.003 1696.618 356.003 1696.618 356.003 L 1696.618 355 L 1696.622 355 C 1697.112 282.055 1751 223 1817.307 223 L 1817.307 223 L 1817.307 223 L 1817.307 223 L 1817.307 223 C 1883.613 223 1937.502 282.055 1937.992 355 L 1937.995 355 L 1937.995 356.003 L 1937.995 356.003 L 1937.995 552.761 C 1937.995 620.088 1985.985 674.75 2045.096 674.75 L 2045.096 674.75 C 2104.206 674.75 2152.197 620.088 2152.197 552.761 L 2152.197 552.761 L 2152.197 355 Z " fill="rgb(203,228,255)"/><ellipse vector-effect="non-scaling-stroke" cx="148.73251490863447" cy="2606.419972155612" rx="526.2674850913653" ry="275.46618453035944" fill="rgb(170,138,57)"/><path d=" M 1853.224 1239.087 C 1820.597 1123.747 1666.85 1038 1529.244 1038 C 1420.608 1038 1088.49 1055.456 1094.7 1367.543 C 1094.7 1476.292 1192.473 1565.269 1311.972 1565.269 L 1782.728 1565.269 C 1884.121 1565.269 1999.686 1492.769 1999.686 1400.497 C 1999.686 1318.111 1940.133 1248.841 1853.224 1239.087 Z " fill="rgb(255,255,255)" fill-opacity="0.39"/><rect x="0" y="2492.151" width="2274.847" height="586.849" transform="matrix(1,0,0,1,0,0)" fill="rgb(3,169,244)"/><rect x="825" y="2498.151" width="2274.847" height="586.849" transform="matrix(1,0,0,1,0,0)" fill="rgb(3,169,244)"/><path d=" M 3100.963 2763.523 Q 2931.888 2853.98 2867.388 2853.98 C 2802.888 2853.98 2750.6 2813.481 2750.6 2763.523 Q 2581.525 2853.98 2517.025 2853.98 C 2452.525 2853.98 2400.238 2813.481 2400.238 2763.523 Q 2231.163 2853.98 2166.663 2853.98 C 2102.163 2853.98 2049.875 2813.481 2049.875 2763.523 Q 1880.8 2853.98 1816.3 2853.98 C 1751.8 2853.98 1699.513 2813.481 1699.513 2763.523 Q 1530.438 2853.98 1465.938 2853.98 C 1401.438 2853.98 1349.15 2813.481 1349.15 2763.523 Q 1180.075 2853.98 1115.575 2853.98 C 1051.075 2853.98 882 2944.437 1115.575 2944.437 C 1185.648 2944.437 1247.895 2919.878 1290.756 2881.886 C 1333.617 2919.878 1395.865 2944.437 1465.938 2944.437 C 1536.01 2944.437 1598.258 2919.878 1641.119 2881.886 C 1683.98 2919.878 1746.228 2944.437 1816.3 2944.437 C 1886.373 2944.437 1948.62 2919.878 1991.481 2881.886 C 2034.342 2919.878 2096.59 2944.437 2166.663 2944.437 C 2236.735 2944.437 2298.983 2919.878 2341.844 2881.886 C 2384.705 2919.878 2446.953 2944.437 2517.025 2944.437 C 2587.098 2944.437 2649.345 2919.878 2692.206 2881.886 C 2735.067 2919.878 2797.315 2944.437 2867.388 2944.437 C 3100.963 2944.437 3100.963 2763.523 3100.963 2763.523 Z  M 3100.963 2401.693 Q 2931.888 2492.151 2867.388 2492.151 C 2802.888 2492.151 2750.6 2451.652 2750.6 2401.693 Q 2581.525 2492.151 2517.025 2492.151 C 2452.525 2492.151 2400.238 2451.652 2400.238 2401.693 Q 2231.163 2492.151 2166.663 2492.151 C 2102.163 2492.151 2049.875 2451.652 2049.875 2401.693 Q 1880.8 2492.151 1816.3 2492.151 C 1751.8 2492.151 1699.513 2451.652 1699.513 2401.693 Q 1530.438 2492.151 1465.938 2492.151 C 1401.438 2492.151 1349.15 2451.652 1349.15 2401.693 Q 1180.075 2492.151 1115.575 2492.151 C 1051.075 2492.151 882 2582.608 1115.575 2582.608 C 1185.648 2582.608 1247.895 2558.049 1290.756 2520.057 C 1333.617 2558.049 1395.865 2582.608 1465.938 2582.608 C 1536.01 2582.608 1598.258 2558.049 1641.119 2520.057 C 1683.98 2558.049 1746.228 2582.608 1816.3 2582.608 C 1886.373 2582.608 1948.62 2558.049 1991.481 2520.057 C 2034.342 2558.049 2096.59 2582.608 2166.663 2582.608 C 2236.735 2582.608 2298.983 2558.049 2341.844 2520.057 C 2384.705 2558.049 2446.953 2582.608 2517.025 2582.608 C 2587.098 2582.608 2649.345 2558.049 2692.206 2520.057 C 2735.067 2558.049 2797.315 2582.608 2867.388 2582.608 C 3100.963 2582.608 3100.963 2401.693 3100.963 2401.693 Z " fill="rgb(53,188,251)"/><path d=" M 1055.388 2853.98 C 990.888 2853.98 938.6 2813.481 938.6 2763.523 Q 769.525 2853.98 705.025 2853.98 C 640.525 2853.98 588.238 2813.481 588.238 2763.523 Q 419.163 2853.98 354.663 2853.98 C 290.163 2853.98 237.875 2813.481 237.875 2763.523 Q 68.8 2853.98 4.3 2853.98 C -60.2 2853.98 -112.487 2813.481 -112.487 2763.523 Q -281.562 2853.98 -346.062 2853.98 C -410.562 2853.98 -462.85 2813.481 -462.85 2763.523 Q -631.925 2853.98 -696.425 2853.98 Q -760.925 2853.98 -930 2763.523 C -930 2763.523 -930 2944.437 -696.425 2944.437 C -626.352 2944.437 -564.105 2919.878 -521.244 2881.886 C -478.383 2919.878 -416.135 2944.437 -346.062 2944.437 C -275.99 2944.437 -213.742 2919.878 -170.881 2881.886 C -128.02 2919.878 -65.772 2944.437 4.3 2944.437 C 74.373 2944.437 136.62 2919.878 179.481 2881.886 C 222.342 2919.878 284.59 2944.437 354.663 2944.437 C 424.735 2944.437 486.983 2919.878 529.844 2881.886 C 572.705 2919.878 634.953 2944.437 705.025 2944.437 C 775.098 2944.437 837.345 2919.878 880.206 2881.886 C 923.067 2919.878 985.315 2944.437 1055.388 2944.437 C 1288.963 2944.437 1119.888 2853.98 1055.388 2853.98 Z  M 1055.388 2492.151 C 990.888 2492.151 938.6 2451.652 938.6 2401.693 Q 769.525 2492.151 705.025 2492.151 C 640.525 2492.151 588.238 2451.652 588.238 2401.693 Q 419.163 2492.151 354.663 2492.151 C 290.163 2492.151 237.875 2451.652 237.875 2401.693 Q 68.8 2492.151 4.3 2492.151 C -60.2 2492.151 -112.487 2451.652 -112.487 2401.693 Q -281.562 2492.151 -346.062 2492.151 C -410.562 2492.151 -462.85 2451.652 -462.85 2401.693 Q -631.925 2492.151 -696.425 2492.151 Q -760.925 2492.151 -930 2401.693 C -930 2401.693 -930 2582.608 -696.425 2582.608 C -626.352 2582.608 -564.105 2558.049 -521.244 2520.057 C -478.383 2558.049 -416.135 2582.608 -346.062 2582.608 C -275.99 2582.608 -213.742 2558.049 -170.881 2520.057 C -128.02 2558.049 -65.772 2582.608 4.3 2582.608 C 74.373 2582.608 136.62 2558.049 179.481 2520.057 C 222.342 2558.049 284.59 2582.608 354.663 2582.608 C 424.735 2582.608 486.983 2558.049 529.844 2520.057 C 572.705 2558.049 634.953 2582.608 705.025 2582.608 C 775.098 2582.608 837.345 2558.049 880.206 2520.057 C 923.067 2558.049 985.315 2582.608 1055.388 2582.608 C 1288.963 2582.608 1119.888 2492.151 1055.388 2492.151 Z " fill="rgb(53,188,251)"/><circle vector-effect="non-scaling-stroke" cx="2487.8282649298408" cy="1447.1717350701592" r="652.1717350701592" fill="rgb(253,229,159)"/><circle vector-effect="non-scaling-stroke" cx="2477.9878358316164" cy="1451.7802618197793" r="539.9927516430639" fill="rgb(255,225,136)"/><path d=" M 881.594 1170.751 C 846.469 1046.581 680.951 954.27 532.811 954.27 C 415.858 954.27 314.421 1011.104 259.921 1099.797 C 150.765 1117.536 65 1202.61 65 1309.041 C 65 1426.116 170.257 1521.904 298.905 1521.904 L 805.7 1521.904 C 914.856 1521.904 1039.267 1443.854 1039.267 1344.518 C 1039.267 1255.826 975.156 1181.253 881.594 1170.751 Z " fill="rgb(255,255,255)" fill-opacity="0.39"/><g><path d=" M 32.887 2162.462 C 32.683 2145.988 39.297 2126.849 49.957 2113.87 C 60.648 2100.93 76.926 2090.873 94.978 2087.997 C 112.992 2084.946 131.203 2089.144 145.51 2097.223 C 159.923 2105.407 169.043 2117.645 176.329 2132.277 C 160.149 2129.907 148.719 2125.837 135.831 2124.184 C 122.973 2122.402 111.55 2122.198 100.905 2123.95 C 90.229 2125.671 79.749 2129.401 68.613 2135.486 C 57.424 2141.526 46.054 2153.04 32.887 2162.462 Z  M 297.136 2162.462 C 285.766 2155.463 276.125 2149.151 266.672 2143.814 C 257.28 2138.483 248.356 2134.361 239.5 2131.809 C 230.643 2129.235 221.667 2128.087 211.338 2128.412 C 200.98 2128.616 189.7 2130.646 176.336 2132.277 C 182.505 2120.333 192.675 2111.039 205.479 2105.399 C 218.901 2099.588 233.939 2098.68 247.963 2102.832 C 262.066 2106.94 273.92 2115.667 282.353 2126.094 C 290.681 2136.626 296.434 2148.902 297.136 2162.462 Z " fill="rgb(56,142,60)"/><path d=" M 93.287 2366.198 C 176.336 2291.152 168.786 2132.277 168.786 2132.277 L 183.886 2132.277 C 183.886 2132.277 191.436 2342.446 146.136 2387.474 C 130.712 2391.461 93.287 2388.712 93.287 2366.198 Z " fill="rgb(121,85,72)"/><g><path d=" M 176.336 2132.277 C 159.666 2139.782 146.808 2147.151 136.48 2155.244 C 126.159 2163.285 118.738 2171.832 111.86 2181.805 C 105.034 2191.794 98.926 2203.526 92.63 2216.784 C 86.227 2230.05 80.104 2244.636 70.637 2260.551 C 61.237 2244.598 57.545 2227.211 57.809 2209.272 C 58.292 2191.446 63.223 2172.609 74.487 2156.226 C 85.518 2139.835 103.388 2126.917 122.535 2122.606 C 141.561 2118.287 161.372 2121.028 176.336 2132.277 Z " fill="rgb(76,175,80)"/><path d=" M 266.838 2268.101 C 258.261 2252.813 252.093 2239.525 246.03 2226.984 C 240.088 2214.497 234.396 2203.172 228.378 2192.813 C 222.308 2182.439 216.019 2173.009 207.82 2163.421 C 199.689 2153.666 189.353 2144.274 176.329 2132.277 C 192.727 2125.656 211.134 2126.751 227.79 2133.923 C 244.46 2141.081 258.714 2154.504 267.555 2170.088 C 276.578 2185.671 280.745 2203.051 280.806 2219.872 C 280.632 2236.678 277.046 2253.485 266.838 2268.101 Z " fill="rgb(76,175,80)"/></g></g><path d=" M 870.75 758.368 L 816.931 758.368 L 816.931 464.25 L 816.931 464.25 L 816.931 674.75 C 816.931 713.332 839.409 746.195 870.75 758.368 Z " fill-rule="evenodd" fill="rgb(203,228,255)"/><defs><filter id="yljMN6U397OahlmeMkxTIVS469UmLov2" x="-200%" y="-200%" width="400%" height="400%" filterUnits="objectBoundingBox" color-interpolation-filters="sRGB"><feGaussianBlur xmlns="http://www.w3.org/2000/svg" in="SourceGraphic" stdDeviation="0"/><feOffset xmlns="http://www.w3.org/2000/svg" dx="0" dy="-75" result="pf_100_offsetBlur"/><feFlood xmlns="http://www.w3.org/2000/svg" flood-color="#464646" flood-opacity="1"/><feComposite xmlns="http://www.w3.org/2000/svg" in2="pf_100_offsetBlur" operator="in" result="pf_100_dropShadow"/><feBlend xmlns="http://www.w3.org/2000/svg" in="SourceGraphic" in2="pf_100_dropShadow" mode="normal"/></filter></defs><g filter="url(#yljMN6U397OahlmeMkxTIVS469UmLov2)"><path d=" M 1884.748 2147.347 L 1884.748 2147.347 L 1884.748 2147.347 Q 1899.529 2275.047 1817.302 2359.347 L 1817.302 2359.347 L 1817.302 2359.347 Q 1735.075 2443.647 1573.339 2462.854 L 1573.339 2462.854 L 1573.339 2462.854 Q 1424.337 2480.548 1303.151 2437.403 L 1303.151 2437.403 L 1281.65 2251.657 L 1281.65 2251.657 Q 1380.818 2283.033 1448.101 2292.696 L 1448.101 2292.696 L 1448.101 2292.696 Q 1515.384 2302.359 1569.509 2295.931 L 1569.509 2295.931 L 1569.509 2295.931 Q 1634.458 2288.219 1666.25 2258.944 L 1666.25 2258.944 L 1666.25 2258.944 Q 1698.042 2229.67 1692.293 2180.009 L 1692.293 2180.009 L 1692.293 2180.009 Q 1689.083 2152.276 1671.3 2132.485 L 1671.3 2132.485 L 1671.3 2132.485 Q 1653.516 2112.694 1621.593 2096.216 L 1621.593 2096.216 L 1621.593 2096.216 Q 1589.669 2079.739 1493.536 2046.696 L 1493.536 2046.696 L 1493.536 2046.696 Q 1403.507 2016.196 1356.515 1983.855 L 1356.515 1983.855 L 1356.515 1983.855 Q 1309.522 1951.515 1278.303 1904.878 L 1278.303 1904.878 L 1278.303 1904.878 Q 1247.084 1858.241 1239.395 1791.811 L 1239.395 1791.811 L 1239.395 1791.811 Q 1224.911 1666.691 1300.358 1585.158 L 1300.358 1585.158 L 1300.358 1585.158 Q 1375.805 1503.624 1523.533 1486.081 L 1523.533 1486.081 L 1523.533 1486.081 Q 1596.123 1477.461 1664.043 1487.048 L 1664.043 1487.048 L 1664.043 1487.048 Q 1731.963 1496.636 1807.575 1519.694 L 1807.575 1519.694 L 1761.892 1682.689 L 1761.892 1682.689 Q 1683.807 1660.578 1633.677 1654.109 L 1633.677 1654.109 L 1633.677 1654.109 Q 1583.547 1647.639 1536.426 1653.235 L 1536.426 1653.235 L 1536.426 1653.235 Q 1480.392 1659.889 1453.525 1689.886 L 1453.525 1689.886 L 1453.525 1689.886 Q 1426.658 1719.883 1431.586 1762.45 L 1431.586 1762.45 L 1431.586 1762.45 Q 1434.647 1788.893 1449.022 1807.127 L 1449.022 1807.127 L 1449.022 1807.127 Q 1463.397 1825.362 1491.95 1840.605 L 1491.95 1840.605 L 1491.95 1840.605 Q 1520.504 1855.848 1624.726 1891.853 L 1624.726 1891.853 L 1624.726 1891.853 Q 1762.577 1939.557 1818.325 1997.338 L 1818.325 1997.338 L 1818.325 1997.338 Q 1874.072 2055.119 1884.748 2147.347 Z " fill="rgb(255,255,255)"/></g></g></svg>