<?xml version="1.0" encoding="UTF-8" standalone="no"?><!-- Generator: Gravit.io --><svg xmlns="http://www.w3.org/2000/svg" xmlns:xlink="http://www.w3.org/1999/xlink" style="isolation:isolate" viewBox="0 0 1080 1080" width="1080pt" height="1080pt"><defs><clipPath id="_clipPath_RivUnW6z3GKFobbiX28fz8j3DtPNv4UZ"><rect width="1080" height="1080"/></clipPath></defs><g clip-path="url(#_clipPath_RivUnW6z3GKFobbiX28fz8j3DtPNv4UZ)"><path d=" M 221.802 858.198 C 46.184 682.58 46.184 397.42 221.802 221.802 C 397.42 46.184 682.58 46.184 858.198 221.802 C 1033.816 397.42 1033.816 682.58 858.198 858.198 C 682.58 1033.816 397.42 1033.816 221.802 858.198 Z " fill="rgb(0,0,0)" fill-opacity="0.2"/><g><path d=" M 263.965 352.974 L 263.637 352.974 C 263.616 352.336 263.605 351.697 263.605 351.057 C 263.605 282.312 387.454 226.5 540 226.5 C 692.546 226.5 816.395 282.312 816.395 351.057 C 816.395 351.697 816.384 352.336 816.363 352.974 L 816.003 352.974 C 816.239 354.229 816.363 355.525 816.363 356.848 L 816.363 362.625 C 816.363 374.146 807.009 383.5 795.488 383.5 L 284.48 383.5 C 272.959 383.5 263.605 374.146 263.605 362.625 L 263.605 356.848 C 263.605 355.525 263.729 354.229 263.965 352.974 Z " fill="rgb(255,255,255)"/><path d=" M 764.839 415.5 L 764.839 792.144 C 764.839 826.007 740.924 853.5 711.468 853.5 L 368.532 853.5 C 339.076 853.5 315.161 826.007 315.161 792.144 L 315.161 415.5 L 764.839 415.5 Z  M 565.392 496.688 C 634.473 508.732 687.059 569.053 687.059 641.559 C 687.059 722.723 621.164 788.618 540 788.618 C 458.836 788.618 392.941 722.723 392.941 641.559 L 392.941 641.559 L 431.205 641.559 L 431.205 641.559 C 431.205 701.596 479.947 750.338 539.984 750.338 C 600.021 750.338 648.763 701.596 648.763 641.559 C 648.763 590.269 613.19 547.223 565.392 535.768 L 565.392 562.5 L 482 514.986 L 565.392 467.472 L 565.392 496.688 Z " fill-rule="evenodd" fill="rgb(255,255,255)"/></g></g></svg>