<?xml version="1.0" encoding="UTF-8" standalone="no"?><!-- Generator: Gravit.io --><svg xmlns="http://www.w3.org/2000/svg" xmlns:xlink="http://www.w3.org/1999/xlink" style="isolation:isolate" viewBox="0 0 1080 1080" width="1080pt" height="1080pt"><defs><clipPath id="_clipPath_924iPU4BOFIDsgIS1KPy9RYMAueJBX6U"><rect width="1080" height="1080"/></clipPath></defs><g clip-path="url(#_clipPath_924iPU4BOFIDsgIS1KPy9RYMAueJBX6U)"><path d=" M 315.774 640.874 L 315.774 801.166 C 315.774 828.118 337.656 850 364.608 850 L 715.392 850 C 742.344 850 764.226 828.118 764.226 801.166 L 764.226 640.874 L 315.774 640.874 Z " fill="rgb(255,255,255)"/><path d=" M 764.226 406 L 764.226 245.708 C 764.226 218.756 742.344 196.874 715.392 196.874 L 364.608 196.874 C 337.656 196.874 315.774 218.756 315.774 245.708 L 315.774 406 L 764.226 406 Z " fill="rgb(193,193,193)"/><path d="M 333.488 381 L 746.512 381 C 756.291 381 764.23 388.939 764.23 398.717 L 764.23 670.283 C 764.23 680.061 756.291 688 746.512 688 L 333.488 688 C 323.709 688 315.77 680.061 315.77 670.283 L 315.77 398.717 C 315.77 388.939 323.709 381 333.488 381 Z" style="stroke:none;fill:#C1C1C1;stroke-miterlimit:10;"/><path d="M 344.669 548 L 735.331 548 C 751.281 548 764.23 560.949 764.23 576.898 L 764.23 684.102 C 764.23 700.051 751.281 713 735.331 713 L 344.669 713 C 328.719 713 315.77 700.051 315.77 684.102 L 315.77 576.898 C 315.77 560.949 328.719 548 344.669 548 Z" style="stroke:none;fill:#FFFFFF;stroke-miterlimit:10;"/><path d="M 365.994 572.37 L 714.006 572.37 C 725.184 572.37 734.26 581.446 734.26 592.625 L 734.26 620.615 C 734.26 631.794 725.184 640.87 714.006 640.87 L 365.994 640.87 C 354.816 640.87 345.74 631.794 345.74 620.615 L 345.74 592.625 C 345.74 581.446 354.816 572.37 365.994 572.37 Z" style="stroke:none;fill:#D9D9D9;stroke-miterlimit:10;"/><circle vector-effect="non-scaling-stroke" cx="539.999999999995" cy="688" r="34.529411764705884" fill="rgb(0,0,0)" fill-opacity="0.4"/><mask id="_mask_XHsoTgLpTww1KVheRc4cCFSkveTXCvF6"><path d=" M 349.33 215.882 L 730.67 215.882 C 737.475 215.882 743 221.407 743 228.213 L 743 416.262 L 743 522.17 C 743 528.975 737.475 534.5 730.67 534.5 L 349.33 534.5 C 342.525 534.5 337 528.975 337 522.17 L 337 228.213 C 337 221.407 342.525 215.882 349.33 215.882 Z " fill="white" stroke="none"/></mask><path d=" M 349.33 215.882 L 730.67 215.882 C 737.475 215.882 743 221.407 743 228.213 L 743 416.262 L 743 522.17 C 743 528.975 737.475 534.5 730.67 534.5 L 349.33 534.5 C 342.525 534.5 337 528.975 337 522.17 L 337 228.213 C 337 221.407 342.525 215.882 349.33 215.882 Z " fill="none"/><path d=" M 349.33 215.882 L 730.67 215.882 C 737.475 215.882 743 221.407 743 228.213 L 743 416.262 L 743 522.17 C 743 528.975 737.475 534.5 730.67 534.5 L 349.33 534.5 C 342.525 534.5 337 528.975 337 522.17 L 337 228.213 C 337 221.407 342.525 215.882 349.33 215.882 Z " fill="none" mask="url(#_mask_XHsoTgLpTww1KVheRc4cCFSkveTXCvF6)" vector-effect="non-scaling-stroke" stroke-width="20" stroke="rgb(0,0,0)" stroke-linejoin="miter" stroke-linecap="square" stroke-miterlimit="3"/><rect x="343.736" y="281" width="397.264" height="10" transform="matrix(1,0,0,1,0,0)" fill="rgb(0,0,0)"/><rect x="383.75" y="373.25" width="312.5" height="10" transform="matrix(0,-1,1,0,161.75,918.25)" fill="rgb(0,0,0)"/></g></svg>